<?xml version="1.0" encoding="UTF-8"?>
<!DOCTYPE svg PUBLIC "-//W3C//DTD SVG 1.1//EN" "http://www.w3.org/Graphics/SVG/1.1/DTD/svg11.dtd">
<svg xmlns="http://www.w3.org/2000/svg" xmlns:xlink="http://www.w3.org/1999/xlink" width="88px" height="101px" version="1.1"><defs/><g transform="translate(0.5,0.5)"><path d="M 24 36 L 36.93 23.07 Q 44 16 51.07 23.07 L 76.93 48.93 Q 84 56 76.93 63.07 L 51.07 88.93 Q 44 96 36.93 88.93 L 11.07 63.07 Q 4 56 11.07 48.93 Z" fill="#000000" stroke="none" transform="translate(2,3)" opacity="0.25"/><path d="M 24 36 L 36.93 23.07 Q 44 16 51.07 23.07 L 76.93 48.93 Q 84 56 76.93 63.07 L 51.07 88.93 Q 44 96 36.93 88.93 L 11.07 63.07 Q 4 56 11.07 48.93 Z" fill="#f5f5f5" stroke="none" pointer-events="none"/><path d="M 22 29 L 34.93 16.07 Q 42 9 49.07 16.07 L 74.93 41.93 Q 82 49 74.93 56.07 L 49.07 81.93 Q 42 89 34.93 81.93 L 9.07 56.07 Q 2 49 9.07 41.93 Z" fill="#000000" stroke="none" transform="translate(2,3)" opacity="0.25"/><path d="M 22 29 L 34.93 16.07 Q 42 9 49.07 16.07 L 74.93 41.93 Q 82 49 74.93 56.07 L 49.07 81.93 Q 42 89 34.93 81.93 L 9.07 56.07 Q 2 49 9.07 41.93 Z" fill="#ffffff" stroke="none" pointer-events="none"/><path d="M 21 21 L 33.93 8.07 Q 41 1 48.07 8.07 L 73.93 33.93 Q 81 41 73.93 48.07 L 48.07 73.93 Q 41 81 33.93 73.93 L 8.07 48.07 Q 1 41 8.07 33.93 Z" fill="#000000" stroke="none" transform="translate(2,3)" opacity="0.25"/><path d="M 21 21 L 33.93 8.07 Q 41 1 48.07 8.07 L 73.93 33.93 Q 81 41 73.93 48.07 L 48.07 73.93 Q 41 81 33.93 73.93 L 8.07 48.07 Q 1 41 8.07 33.93 Z" fill="#f5f5f5" stroke="none" pointer-events="none"/></g></svg>